<?xml version="1.0" encoding="UTF-8" standalone="no"?>
<svg width="25px" height="28px" viewBox="0 0 25 28" version="1.1" xmlns="http://www.w3.org/2000/svg" xmlns:xlink="http://www.w3.org/1999/xlink" xmlns:sketch="http://www.bohemiancoding.com/sketch/ns">
    <!-- Generator: Sketch 3.1.1 (8761) - http://www.bohemiancoding.com/sketch -->
    <title>bullhorn</title>
    <desc>Created with Sketch.</desc>
    <defs></defs>
    <g id="Page-1" stroke="none" stroke-width="1" fill="none" fill-rule="evenodd" sketch:type="MSPage">
        <g id="Main_View" sketch:type="MSArtboardGroup" transform="translate(-280.000000, -21.000000)" fill="#FFFFFF">
            <g id="HEADER" sketch:type="MSLayerGroup">
                <g id="ICONS_Header" transform="translate(31.000000, 0.000000)" sketch:type="MSShapeGroup">
                    <path d="M271.197535,39.5108179 C270.781822,39.6848242 267.9823,37.4047416 266.191536,33.1091858 C264.403679,28.8136301 264.630431,24.8864877 265.046144,24.7121814 C265.461858,24.5378751 268.19161,27.2862747 269.979466,31.5818305 C271.767323,35.8773862 271.613248,39.3338115 271.197535,39.5108179 L271.197535,39.5108179 Z M271.99989,30.5440928 C269.697479,25.0175925 265.993854,20.8081398 264.118785,21.5947684 C260.935527,22.9295168 266.014204,29.3401492 250.388626,35.8956869 C249.036831,36.4618074 248.696703,38.7277895 249.260677,40.0838387 C249.824651,41.4368877 251.67065,42.7869367 253.019537,42.2199161 C253.255011,42.1209125 254.112601,41.8359022 254.112601,41.8359022 C255.074845,43.1709506 256.086511,42.3789219 256.444082,43.2279527 C256.871424,44.2479897 257.807505,46.46507 258.124377,47.2180973 C258.444156,47.9711246 259.165113,48.67015 259.688388,48.4631425 C260.211663,48.2591351 261.987892,47.5601097 262.66815,47.2931001 C263.348407,47.0260904 263.511204,46.4020678 263.301894,45.9070498 C263.078048,45.3760306 262.15941,45.2200249 261.897772,44.5990024 C261.636135,43.98098 260.778545,41.9919079 260.53435,41.3648851 C260.197128,40.5128542 260.909364,39.8198291 261.944286,39.7088251 C269.055014,38.9437974 270.386458,43.4769617 272.808059,42.4599248 C274.680222,41.6738963 274.299394,36.0708932 271.99989,30.5440928 L271.99989,30.5440928 Z" id="bullhorn"></path>
                </g>
            </g>
        </g>
    </g>
</svg>