<?xml version="1.0" encoding="UTF-8" standalone="no"?>
<svg width="100px" height="61px" viewBox="0 0 100 61" version="1.1" xmlns="http://www.w3.org/2000/svg" xmlns:xlink="http://www.w3.org/1999/xlink" xmlns:sketch="http://www.bohemiancoding.com/sketch/ns">
    <!-- Generator: Sketch 3.2.1 (9977) - http://www.bohemiancoding.com/sketch -->
    <title>enter_happ</title>
    <desc>Created with Sketch.</desc>
    <defs>
        <linearGradient x1="-37.7724451%" y1="0%" x2="100%" y2="0%" id="linearGradient-1">
            <stop stop-color="#B6B6B6" offset="0%"></stop>
            <stop stop-color="#909090" offset="100%"></stop>
        </linearGradient>
        <linearGradient x1="92.615171%" y1="100%" x2="92.6151693%" y2="0%" id="linearGradient-2">
            <stop stop-color="#D23F36" offset="0%"></stop>
            <stop stop-color="#F04848" offset="100%"></stop>
        </linearGradient>
    </defs>
    <g id="Page-1" stroke="none" stroke-width="1" fill="none" fill-rule="evenodd" sketch:type="MSPage">
        <g id="Profile" sketch:type="MSArtboardGroup" transform="translate(-980.000000, -127.000000)">
            <g id="CENTER" sketch:type="MSLayerGroup" transform="translate(369.000000, 103.000000)">
                <g id="enter_happ" transform="translate(611.000000, 24.000000)" sketch:type="MSShapeGroup">
                    <path d="M100,0.0761301092 L100,52.9238699 L97.702868,54.6104096 L89,61 L89,1.95399252e-13 L100,0.0761301092 Z" id="Rectangle-177" fill="url(#linearGradient-1)"></path>
                    <rect id="Rectangle-176" fill="url(#linearGradient-2)" x="0" y="0" width="100" height="53"></rect>
                    <path d="M54.2684564,31.25 L54.2684564,36 L62,29.0333333 L54.2684564,22.0666667 L54.2684564,26.8166667 L42.5100671,26.8166667 L42.5100671,17 L38,17 L38,28.0833333 C38,29.8313333 39.442255,31.25 41.2214765,31.25 L54.2684564,31.25 Z" id="Fill-69" fill="#FFFFFF" transform="translate(50.000000, 26.500000) scale(1, -1) translate(-50.000000, -26.500000) "></path>
                </g>
            </g>
        </g>
    </g>
</svg>