<?xml version="1.0" encoding="UTF-8" standalone="no"?>
<svg width="25px" height="25px" viewBox="0 0 25 25" version="1.1" xmlns="http://www.w3.org/2000/svg" xmlns:xlink="http://www.w3.org/1999/xlink" xmlns:sketch="http://www.bohemiancoding.com/sketch/ns">
    <!-- Generator: Sketch 3.2.1 (9977) - http://www.bohemiancoding.com/sketch -->
    <title>logout</title>
    <desc>Created with Sketch.</desc>
    <defs></defs>
    <g id="Page-1" stroke="none" stroke-width="1" fill="none" fill-rule="evenodd" sketch:type="MSPage">
        <g id="Profile" sketch:type="MSArtboardGroup" transform="translate(-276.000000, -21.000000)" fill="#FFFFFF">
            <g id="HEADER" sketch:type="MSLayerGroup">
                <g id="ICONS_Header" transform="translate(31.000000, 0.000000)" sketch:type="MSShapeGroup">
                    <path d="M270,34.1939444 L264.472222,28.7772778 L264.472222,32.1106111 L251.9725,32.1106111 L251.9725,36.2772778 L264.472222,36.2772778 L264.472222,39.6106111 L270,34.1939444 L270,34.1939444 Z M258.916667,43.2217222 L247.75,43.2217222 L247.75,23.7772778 L258.916667,23.7772778 L258.916667,27.9439444 L261.666667,27.9439444 L261.666667,23.7772778 C261.666667,22.2495 260.416667,20.9995 258.888889,20.9995 L247.777778,20.9995 C246.25,20.9995 245,22.2495 245,23.7772778 L245,43.2217222 C245,44.7495 246.25,45.9995 247.777778,45.9995 L258.888889,45.9995 C260.416667,45.9995 261.666667,44.7495 261.666667,43.2217222 L261.666667,40.4439444 L258.916667,40.4439444 L258.916667,43.2217222 L258.916667,43.2217222 Z" id="logout"></path>
                </g>
            </g>
        </g>
    </g>
</svg>