<?xml version="1.0" encoding="UTF-8" standalone="no"?>
<svg width="213px" height="108px" viewBox="0 0 213 108" version="1.1" xmlns="http://www.w3.org/2000/svg" xmlns:xlink="http://www.w3.org/1999/xlink" xmlns:sketch="http://www.bohemiancoding.com/sketch/ns">
    <!-- Generator: Sketch 3.2 (9964) - http://www.bohemiancoding.com/sketch -->
    <title>HAPP + Logo_circle 2</title>
    <desc>Created with Sketch.</desc>
    <defs>
        <path id="path-1" d="M29.0625,55.8139535 C45.1132755,55.8139535 58.125,43.3195744 58.125,27.9069767 C58.125,12.4943791 45.1132755,0 29.0625,0 C13.0117245,0 0,12.4943791 0,27.9069767 C0,43.3195744 13.0117245,55.8139535 29.0625,55.8139535 Z"></path>
    </defs>
    <g id="Page-1" stroke="none" stroke-width="1" fill="none" fill-rule="evenodd" sketch:type="MSPage">
        <g id="Landing_Page" sketch:type="MSArtboardGroup" transform="translate(-613.000000, -273.000000)">
            <g id="CENTER" sketch:type="MSLayerGroup" transform="translate(595.000000, 275.000000)">
                <g id="HAPP-+-Logo_circle-2" transform="translate(18.000000, 0.000000)">
                    <path d="M117.751758,103 L108.059375,103 L108.059375,88.4492188 L96.8533206,88.4492188 L96.8533206,103 L87.1609378,103 L87.1609378,67.3066406 L96.8533206,67.3066406 L96.8533206,80.5390625 L108.059375,80.5390625 L108.059375,67.3066406 L117.751758,67.3066406 L117.751758,103 Z M145.266016,103 L143.508203,96.3105469 L131.911524,96.3105469 L130.104883,103 L119.50918,103 L131.154688,67.1601562 L144.020899,67.1601562 L155.812891,103 L145.266016,103 Z M141.50625,88.4003906 L139.968164,82.5410156 C139.610089,81.2389258 139.17471,79.5543723 138.662012,77.4873047 C138.149314,75.4202371 137.811589,73.9391321 137.648828,73.0439453 C137.502343,73.8740276 137.213446,75.2412014 136.782129,77.1455078 C136.350812,79.0498142 135.394604,82.8014043 133.913477,88.4003906 L141.50625,88.4003906 Z M183.473633,78.6591797 C183.473633,82.6468298 182.297701,85.7270399 179.945801,87.8999023 C177.593901,90.0727648 174.253277,91.1591797 169.923828,91.1591797 L167.213867,91.1591797 L167.213867,103 L157.570312,103 L157.570312,67.3066406 L169.923828,67.3066406 C174.432314,67.3066406 177.817697,68.2913313 180.080078,70.2607422 C182.342459,72.2301531 183.473633,75.0296042 183.473633,78.6591797 L183.473633,78.6591797 Z M167.213867,83.2978516 L168.97168,83.2978516 C170.420255,83.2978516 171.571773,82.8909546 172.42627,82.0771484 C173.280766,81.2633423 173.708008,80.1403066 173.708008,78.7080078 C173.708008,76.2991416 172.373386,75.0947266 169.704102,75.0947266 L167.213867,75.0947266 L167.213867,83.2978516 Z M212.96543,78.6591797 C212.96543,82.6468298 211.789497,85.7270399 209.437598,87.8999023 C207.085698,90.0727648 203.745074,91.1591797 199.415625,91.1591797 L196.705664,91.1591797 L196.705664,103 L187.062109,103 L187.062109,67.3066406 L199.415625,67.3066406 C203.924111,67.3066406 207.309494,68.2913313 209.571875,70.2607422 C211.834256,72.2301531 212.96543,75.0296042 212.96543,78.6591797 L212.96543,78.6591797 Z M196.705664,83.2978516 L198.463476,83.2978516 C199.912051,83.2978516 201.06357,82.8909546 201.918066,82.0771484 C202.772563,81.2633423 203.199805,80.1403066 203.199805,78.7080078 C203.199805,76.2991416 201.865182,75.0947266 199.195898,75.0947266 L196.705664,75.0947266 L196.705664,83.2978516 Z" id="HAPP" fill="#FFFFFF" sketch:type="MSShapeGroup"></path>
                    <g id="Logo_circle-2" transform="translate(0.625000, 0.000000)">
                        <g id="Oval-5" transform="translate(4.650000, 6.976744)">
                            <path d="M13.95,55.8139535 C13.95,76.3640837 30.6050073,93.0232558 51.15,93.0232558 C71.6949927,93.0232558 88.35,76.3640837 88.35,55.8139535 C88.35,35.2638233 71.6949927,18.6046512 51.15,18.6046512 L51.15,27.9069767 C66.5587445,27.9069767 79.05,40.4013558 79.05,55.8139535 C79.05,71.2265512 66.5587445,83.7209302 51.15,83.7209302 C35.7412555,83.7209302 23.25,71.2265512 23.25,55.8139535 C23.25,53.342908 23.5699599,50.9185676 24.1948965,48.5814363 L15.2106921,46.1779056 C14.3765928,49.2972613 13.95,52.5295609 13.95,55.8139535 Z" id="Oval-3" fill="#D33F37" sketch:type="MSShapeGroup"></path>
                            <mask id="mask-2" sketch:name="Mask" fill="white">
                                <use xlink:href="#path-1"></use>
                            </mask>
                            <use id="Mask" sketch:type="MSShapeGroup" xlink:href="#path-1"></use>
                            <path d="M13.95,55.0697674 C13.95,75.2088951 30.6050073,91.5348837 51.15,91.5348837 C71.6949927,91.5348837 88.35,75.2088951 88.35,55.0697674 C88.35,34.9306398 71.6949927,18.6046512 51.15,18.6046512 L51.15,27.9086801 C66.5587445,27.9086801 79.05,39.9654217 79.05,55.0697674 C79.05,70.1741132 66.5587445,82.4186047 51.15,82.4186047 C35.7412555,82.4186047 23.25,70.1741132 23.25,55.0697674 C23.25,52.6481429 23.9245034,50.1897857 24.54944,47.899397 L15.5104065,45.6091592 C14.6763072,48.6661278 13.95,51.8510627 13.95,55.0697674 Z" fill-opacity="0.2" fill="#000000" sketch:type="MSShapeGroup" mask="url(#mask-2)"></path>
                        </g>
                        <path d="M60.45,30.2325581 C60.45,13.5355773 46.9178066,0 30.225,0 C13.5321934,0 0,13.5355773 0,30.2325581 C0,46.9295389 13.5321934,60.4651163 30.225,60.4651163 C46.9178066,60.4651163 60.45,46.9295389 60.45,30.2325581 Z M9.3,30.2325581 C9.3,18.6731099 18.6684416,9.30232558 30.225,9.30232558 C41.7815584,9.30232558 51.15,18.6731099 51.15,30.2325581 C51.15,41.7920064 41.7815584,51.1627907 30.225,51.1627907 C18.6684416,51.1627907 9.3,41.7920064 9.3,30.2325581 Z" id="Oval-3" fill="#EF4847" sketch:type="MSShapeGroup"></path>
                    </g>
                </g>
            </g>
        </g>
    </g>
</svg>