<?xml version="1.0" encoding="UTF-8" standalone="no"?>
<svg width="40px" height="43px" viewBox="0 0 40 43" version="1.1" xmlns="http://www.w3.org/2000/svg" xmlns:xlink="http://www.w3.org/1999/xlink" xmlns:sketch="http://www.bohemiancoding.com/sketch/ns">
    <!-- Generator: Sketch 3.1.1 (8761) - http://www.bohemiancoding.com/sketch -->
    <title>Logo_circle</title>
    <desc>Created with Sketch.</desc>
    <defs>
        <path id="path-1" d="M12.5,24 C19.4035594,24 25,18.627417 25,12 C25,5.372583 19.4035594,0 12.5,0 C5.59644063,0 0,5.372583 0,12 C0,18.627417 5.59644063,24 12.5,24 Z"></path>
    </defs>
    <g id="Page-1" stroke="none" stroke-width="1" fill="none" fill-rule="evenodd" sketch:type="MSPage">
        <g id="Desktop-HD" sketch:type="MSArtboardGroup" transform="translate(-700.000000, -14.000000)">
            <g id="HEADER" sketch:type="MSLayerGroup">
                <g id="Logo_circle" transform="translate(702.000000, 16.000000)">
                    <path d="M8.47432013,21.3732585 C8.16494251,22.5299764 8,23.745726 8,25 C8,32.7319865 14.2680135,39 22,39 C29.7319865,39 36,32.7319865 36,25 C36,17.2680135 29.7319865,11 22,11" id="Oval-3" stroke="#D33F37" stroke-width="4" sketch:type="MSShapeGroup"></path>
                    <g id="Oval-5" transform="translate(0.000000, 1.000000)">
                        <mask id="mask-2" sketch:name="Mask" fill="white">
                            <use xlink:href="#path-1"></use>
                        </mask>
                        <use id="Mask" sketch:type="MSShapeGroup" xlink:href="#path-1"></use>
                        <path d="M6,23.68 C6,32.3398249 13.163444,39.36 22,39.36 C30.836556,39.36 38,32.3398249 38,23.68 C38,15.0201751 30.836556,8 22,8 L22,12.0007324 C28.627417,12.0007324 34,17.1851313 34,23.68 C34,30.1748687 28.627417,35.44 22,35.44 C15.372583,35.44 10,30.1748687 10,23.68 C10,22.6387014 10.290109,21.5816078 10.5588989,20.5967407 L6.67114258,19.6119385 C6.31239019,20.9264349 6,22.295957 6,23.68 Z" fill-opacity="0.2" fill="#000000" sketch:type="MSShapeGroup" mask="url(#mask-2)"></path>
                    </g>
                    <circle id="Oval-3" stroke="#EF4847" stroke-width="4" sketch:type="MSShapeGroup" cx="11" cy="11" r="11"></circle>
                </g>
            </g>
        </g>
    </g>
</svg>