<?xml version="1.0" encoding="UTF-8" standalone="no"?>
<svg width="25px" height="18px" viewBox="0 0 25 18" version="1.1" xmlns="http://www.w3.org/2000/svg" xmlns:xlink="http://www.w3.org/1999/xlink" xmlns:sketch="http://www.bohemiancoding.com/sketch/ns">
    <!-- Generator: Sketch 3.1.1 (8761) - http://www.bohemiancoding.com/sketch -->
    <title>message</title>
    <desc>Created with Sketch.</desc>
    <defs></defs>
    <g id="Page-1" stroke="none" stroke-width="1" fill="none" fill-rule="evenodd" sketch:type="MSPage">
        <g id="Main_View" sketch:type="MSArtboardGroup" transform="translate(-197.000000, -26.000000)" fill="#FFFFFF">
            <g id="HEADER" sketch:type="MSLayerGroup">
                <g id="ICONS_Header" transform="translate(31.000000, 0.000000)" sketch:type="MSShapeGroup">
                    <path d="M190.462498,31.022 C189.69222,31.4461207 180.230555,36.6668793 179.758888,36.9262759 C179.286944,37.1862586 178.956388,37.2202586 178.499999,37.2202586 C178.043888,37.2202586 177.713333,37.1862586 177.241388,36.9262759 C176.769722,36.6668793 167.308612,31.4461207 166.537778,31.022 C165.995556,30.7239138 166.000001,31.0735862 166.000001,31.3438276 L166.000001,42.094569 C166.000001,42.7089138 166.775556,43.5 167.3775,43.5 L189.622776,43.5 C190.224443,43.5 190.999998,42.7089138 190.999998,42.094569 L190.999998,31.3438276 C190.999998,31.0735862 191.005276,30.7239138 190.462498,31.022 L190.462498,31.022 Z M166.825001,28.0909655 C167.503056,28.4758103 176.891944,33.7971034 177.241388,33.9952414 C177.591111,34.1933793 178.043888,34.2892241 178.499999,34.2892241 C178.956388,34.2892241 179.409166,34.1933793 179.758888,33.9952414 C180.108333,33.7971034 189.496943,28.4758103 190.175276,28.0909655 C190.853609,27.7067069 191.495831,26.5 190.249165,26.5 L166.750834,26.5 C165.505278,26.5 166.146667,27.7067069 166.825001,28.0909655 L166.825001,28.0909655 Z" id="message"></path>
                </g>
            </g>
        </g>
    </g>
</svg>