<?xml version="1.0" encoding="UTF-8" standalone="no"?>
<svg width="17px" height="11px" viewBox="0 0 17 11" version="1.1" xmlns="http://www.w3.org/2000/svg" xmlns:xlink="http://www.w3.org/1999/xlink" xmlns:sketch="http://www.bohemiancoding.com/sketch/ns">
    <!-- Generator: Sketch 3.1.1 (8761) - http://www.bohemiancoding.com/sketch -->
    <title>retweet</title>
    <desc>Created with Sketch.</desc>
    <defs></defs>
    <g id="Page-1" stroke="none" stroke-width="1" fill="none" fill-rule="evenodd" sketch:type="MSPage">
        <g id="Main_View" sketch:type="MSArtboardGroup" transform="translate(-928.000000, -1208.000000)" fill="#C4C4C4">
            <g id="CENTER" sketch:type="MSLayerGroup" transform="translate(369.000000, 103.000000)">
                <g id="Tweet4" transform="translate(0.000000, 944.000000)" sketch:type="MSShapeGroup">
                    <g id="Icons" transform="translate(523.000000, 161.000000)">
                        <path d="M51.2831528,7.35166667 L51.2831528,1.83333333 C51.2831528,0.8195 50.5220552,0 49.5831358,0 L41.9500595,0 L44.1267613,2.56666667 L48.7669577,2.56666667 L48.7669577,7.35166667 L47.0499405,7.35166667 L50.0249702,11 L53,7.35166667 L51.2831528,7.35166667 L51.2831528,7.35166667 Z M40.2330423,8.43333333 L40.2330423,3.64833333 L41.9500595,3.64833333 L38.9750298,0 L36,3.64833333 L37.7170172,3.64833333 L37.7170172,9.16666667 C37.7170172,10.1786667 38.4779448,11 39.4170342,11 L47.0499405,11 L44.8732387,8.43333333 L40.2330423,8.43333333 L40.2330423,8.43333333 Z" id="retweet"></path>
                    </g>
                </g>
            </g>
        </g>
    </g>
</svg>