<?xml version="1.0" encoding="UTF-8" standalone="no"?>
<svg width="26px" height="25px" viewBox="0 0 26 25" version="1.1" xmlns="http://www.w3.org/2000/svg" xmlns:xlink="http://www.w3.org/1999/xlink" xmlns:sketch="http://www.bohemiancoding.com/sketch/ns">
    <!-- Generator: Sketch 3.2.1 (9977) - http://www.bohemiancoding.com/sketch -->
    <title>settings</title>
    <desc>Created with Sketch.</desc>
    <defs></defs>
    <g id="Page-1" stroke="none" stroke-width="1" fill="none" fill-rule="evenodd" sketch:type="MSPage">
        <g id="Profile" sketch:type="MSArtboardGroup" transform="translate(-196.000000, -22.000000)" fill="#FFFFFF">
            <g id="HEADER" sketch:type="MSLayerGroup">
                <g id="ICONS_Header" transform="translate(31.000000, 0.000000)" sketch:type="MSShapeGroup">
                    <path d="M178.000119,39.9343602 C174.998036,39.9343602 172.564405,37.4999524 172.564405,34.4989048 C172.564405,31.4966668 174.998036,29.0628541 178.000119,29.0628541 C181.0025,29.0628541 183.436131,31.4966668 183.436131,34.4989048 C183.436131,37.4999524 181.0025,39.9343602 178.000119,39.9343602 L178.000119,39.9343602 Z M188.095655,34.4989048 C188.095655,32.9403481 189.055179,31.7097519 190.500119,30.8639588 C190.24,29.9940598 189.89506,29.1607661 189.470952,28.3762797 C187.850417,28.800069 186.539107,28.1652778 185.436726,27.063247 C184.334345,25.9609185 183.996845,24.6487786 184.420952,23.0289153 C183.636429,22.6045307 182.803095,22.2596067 181.93256,21.9995 C181.086726,23.4446693 179.559345,24.4038498 178.000119,24.4038498 C176.441488,24.4038498 174.91381,23.4446693 174.067679,21.9995 C173.197738,22.2593091 172.364405,22.6045307 171.579881,23.0286177 C172.00369,24.6487786 171.666488,25.9603233 170.564107,27.063247 C169.461726,28.1655754 168.149821,28.800069 166.529583,28.3765773 C166.105476,29.1607661 165.760536,29.9940598 165.500119,30.8639588 C166.945357,31.7097519 167.904583,32.9403481 167.904583,34.4989048 C167.904583,36.0574615 166.945357,37.5862578 165.500119,38.4314556 C165.760536,39.3004619 166.105476,40.1337555 166.529583,40.9194324 C168.150119,40.4938574 169.461726,40.833127 170.564107,41.934265 C171.66619,43.0383791 172.00369,44.3478406 171.579881,45.9697871 C172.364405,46.3923861 173.197738,46.7376077 174.068274,46.9995 C174.914107,45.5531403 176.441488,44.5948526 178.000119,44.5948526 C179.559345,44.5948526 181.086726,45.5531403 181.93256,46.9995 C182.803095,46.7376077 183.636429,46.3923861 184.42125,45.9697871 C183.99744,44.3478406 184.334345,43.0383791 185.436726,41.934265 C186.539107,40.833127 187.850714,40.1962525 189.470952,40.6218275 C189.89506,39.8361506 190.24,39.002857 190.500119,38.1338507 C189.055179,37.2886529 188.095655,36.0574615 188.095655,34.4989048 L188.095655,34.4989048 Z" id="settings"></path>
                </g>
            </g>
        </g>
    </g>
</svg>