<?xml version="1.0" encoding="utf-8"?>
<!-- Generator: Adobe Illustrator 18.1.1, SVG Export Plug-In . SVG Version: 6.00 Build 0)  -->
<svg version="1.1" id="Calque_1" xmlns:sketch="http://www.bohemiancoding.com/sketch/ns"
	 xmlns="http://www.w3.org/2000/svg" xmlns:xlink="http://www.w3.org/1999/xlink" x="0px" y="0px" viewBox="0 0 800 600"
	 enable-background="new 0 0 800 600" xml:space="preserve">
<g>
	<path fill="#FFFFFF" d="M625.2,299.4c0-36.5,20.9-65.2,54.8-83.5c-5.2-20.9-13-39.1-23.5-57.4c-36.5,10.4-67.8-5.2-93.9-31.3
		c-26.1-26.1-33.9-54.8-23.5-93.9c-18.3-10.4-36.5-18.3-57.4-23.5c-18.3,33.9-54.8,54.8-91.3,54.8s-70.4-20.9-91.3-54.8
		c-20.9,5.2-39.1,13-57.4,23.5c10.4,36.5,2.6,67.8-23.5,93.9s-54.8,39.1-93.9,31.3c-10.4,18.3-18.3,36.5-23.5,57.4
		c33.9,18.3,54.8,47,54.8,83.5s-20.9,70.4-54.8,91.3c5.2,20.9,13,39.1,23.5,57.4c36.5-10.4,67.8-2.6,93.9,23.5s33.9,54.8,23.5,93.9
		c18.3,10.4,36.5,18.3,57.4,23.5c18.3-33.9,54.8-54.8,91.3-54.8s70.4,20.9,91.3,54.8c20.9-5.2,39.1-13,57.4-23.5
		c-10.4-36.5-2.6-67.8,23.5-91.3c26.1-26.1,54.8-39.1,93.9-31.3c10.4-18.3,18.3-36.5,23.5-57.4C646,364.7,625.2,336,625.2,299.4z
		 M393,424.7c-67.8,0-125.2-54.8-125.2-125.2c0-67.8,54.8-125.2,125.2-125.2c67.8,0,125.2,54.8,125.2,125.2
		C518.2,367.3,460.8,424.7,393,424.7z"/>
</g>
</svg>
