<?xml version="1.0" encoding="UTF-8" standalone="no"?>
<svg width="13px" height="16px" viewBox="0 0 13 16" version="1.1" xmlns="http://www.w3.org/2000/svg" xmlns:xlink="http://www.w3.org/1999/xlink" xmlns:sketch="http://www.bohemiancoding.com/sketch/ns">
    <!-- Generator: Sketch 3.2.1 (9977) - http://www.bohemiancoding.com/sketch -->
    <title>trash</title>
    <desc>Created with Sketch.</desc>
    <defs></defs>
    <g id="Page-1" stroke="none" stroke-width="1" fill="none" fill-rule="evenodd" sketch:type="MSPage">
        <g id="Profile" sketch:type="MSArtboardGroup" transform="translate(-930.000000, -392.000000)" fill="#C4C4C4">
            <g id="CENTER" sketch:type="MSLayerGroup" transform="translate(369.000000, 103.000000)">
                <g id="Tweet1" transform="translate(0.000000, 202.000000)" sketch:type="MSShapeGroup">
                    <g id="Icons" transform="translate(523.000000, 87.000000)">
                        <path d="M46.2686842,3.115 L45.1978947,2 L43.8003947,2 L42.7296053,3.115 L41.2756579,3.115 C41.2756579,3.115 42.8681579,1.265 43.0819737,1.015 C43.2444737,0.821666667 43.4103947,0.75 43.6259211,0.75 L45.3723684,0.75 C45.5878947,0.75 45.7538158,0.821666667 45.9180263,1.015 C46.1301316,1.265 47.7226316,3.115 47.7226316,3.115 L46.2686842,3.115 L46.2686842,3.115 Z M47.2077632,1.25833333 L46.4722368,0.465 C46.19,0.0716666667 45.8821053,0 45.2834211,0 L43.7165789,0 C43.1161842,0 42.8082895,0.0716666667 42.5260526,0.465 L41.7905263,1.25833333 C39.5925,1.63333333 38,2.625 38,3.35666667 L38,3.5 C38,4.78833333 40.9096053,5.83333333 44.5,5.83333333 C48.0886842,5.83333333 51,4.78833333 51,3.5 L51,3.35666667 C51,2.625 49.4057895,1.63333333 47.2077632,1.25833333 L47.2077632,1.25833333 Z M38.845,6.26 L39.7875,14.35 C39.8371053,14.735 41.7426316,15.9966667 44.5,16 C47.2556579,15.9966667 49.1611842,14.735 49.2125,14.35 L50.1532895,6.26 C48.7147368,7.04333333 46.5611842,7.41666667 44.5,7.41666667 C42.4371053,7.41666667 40.2835526,7.04333333 38.845,6.26 L38.845,6.26 Z" id="trash"></path>
                    </g>
                </g>
            </g>
        </g>
    </g>
</svg>