<?xml version="1.0" encoding="UTF-8" standalone="no"?>
<svg width="25px" height="26px" viewBox="0 0 25 26" version="1.1" xmlns="http://www.w3.org/2000/svg" xmlns:xlink="http://www.w3.org/1999/xlink" xmlns:sketch="http://www.bohemiancoding.com/sketch/ns">
    <!-- Generator: Sketch 3.1.1 (8761) - http://www.bohemiancoding.com/sketch -->
    <title>user</title>
    <desc>Created with Sketch.</desc>
    <defs></defs>
    <g id="Page-1" stroke="none" stroke-width="1" fill="none" fill-rule="evenodd" sketch:type="MSPage">
        <g id="Main_View" sketch:type="MSArtboardGroup" transform="translate(-114.000000, -22.000000)" fill="#FFFFFF">
            <g id="HEADER" sketch:type="MSLayerGroup">
                <g id="ICONS_Header" transform="translate(31.000000, 0.000000)" sketch:type="MSShapeGroup">
                    <path d="M98.25,36.6236111 C98.25,35.2705556 99.25,35.7122222 99.6888298,33.2347222 C99.8723404,32.2069444 100.755319,33.2180556 100.925532,30.8716667 C100.925532,29.9363889 100.441489,29.7041667 100.441489,29.7041667 C100.441489,29.7041667 100.68883,28.3202778 100.784574,27.2552778 C100.901596,25.9283333 100.050532,22.5 95.5,22.5 C90.9494681,22.5 90.0957447,25.9283333 90.2154255,27.2552778 C90.3111702,28.3202778 90.5585106,29.7041667 90.5585106,29.7041667 C90.5585106,29.7041667 90.0744681,29.9363889 90.0744681,30.8716667 C90.2446809,33.2180556 91.1276596,32.2069444 91.3111702,33.2347222 C91.75,35.7122222 92.75,35.2705556 92.75,36.6236111 C92.75,38.8772222 91.7021277,39.9297222 88.4255319,41.1777778 C85.1356383,42.4291667 83,43.7052778 83,44.5758333 L83,47.5 L108,47.5 L108,44.5758333 C108,43.7052778 105.864362,42.4291667 102.574468,41.1777778 C99.2978723,39.9297222 98.25,38.8772222 98.25,36.6236111 Z" id="user"></path>
                </g>
            </g>
        </g>
    </g>
</svg>